<mxfile host="app.diagrams.net" agent="Mozilla/5.0 (Macintosh; Intel Mac OS X 10_15_7) AppleWebKit/537.36 (KHTML, like Gecko) Chrome/134.0.0.0 Safari/537.36" version="26.1.3">
  <diagram name="第 1 页" id="uanbhfsEBfj6bSECwpIR">
    <mxGraphModel grid="1" page="1" gridSize="10" guides="1" tooltips="1" connect="1" arrows="1" fold="1" pageScale="1" pageWidth="827" pageHeight="1169" math="0" shadow="0">
      <root>
        <mxCell id="0" />
        <mxCell id="1" parent="0" />
        <mxCell id="nULzpAqey_YGa7p1f66B-1" value="&lt;font style=&quot;font-size: 24px;&quot;&gt;L&lt;/font&gt;" style="ellipse;whiteSpace=wrap;html=1;" vertex="1" parent="1">
          <mxGeometry x="370" y="110" width="80" height="60" as="geometry" />
        </mxCell>
        <mxCell id="nULzpAqey_YGa7p1f66B-2" value="&lt;span style=&quot;font-size: 24px;&quot;&gt;I&lt;/span&gt;" style="ellipse;whiteSpace=wrap;html=1;" vertex="1" parent="1">
          <mxGeometry x="260" y="210" width="80" height="60" as="geometry" />
        </mxCell>
        <mxCell id="nULzpAqey_YGa7p1f66B-3" value="&lt;span style=&quot;font-size: 24px;&quot;&gt;S&lt;/span&gt;" style="ellipse;whiteSpace=wrap;html=1;" vertex="1" parent="1">
          <mxGeometry x="170" y="310" width="80" height="60" as="geometry" />
        </mxCell>
        <mxCell id="nULzpAqey_YGa7p1f66B-4" value="" style="endArrow=none;html=1;rounded=0;entryX=0.5;entryY=1;entryDx=0;entryDy=0;exitX=0.5;exitY=0;exitDx=0;exitDy=0;" edge="1" parent="1" source="nULzpAqey_YGa7p1f66B-2" target="nULzpAqey_YGa7p1f66B-1">
          <mxGeometry width="50" height="50" relative="1" as="geometry">
            <mxPoint x="390" y="320" as="sourcePoint" />
            <mxPoint x="440" y="270" as="targetPoint" />
          </mxGeometry>
        </mxCell>
        <mxCell id="nULzpAqey_YGa7p1f66B-5" value="" style="endArrow=none;html=1;rounded=0;entryX=0.5;entryY=1;entryDx=0;entryDy=0;exitX=0.5;exitY=0;exitDx=0;exitDy=0;" edge="1" parent="1" source="nULzpAqey_YGa7p1f66B-3" target="nULzpAqey_YGa7p1f66B-2">
          <mxGeometry width="50" height="50" relative="1" as="geometry">
            <mxPoint x="240" y="339" as="sourcePoint" />
            <mxPoint x="312" y="310" as="targetPoint" />
          </mxGeometry>
        </mxCell>
        <mxCell id="nULzpAqey_YGa7p1f66B-6" value="&lt;span style=&quot;font-size: 24px;&quot;&gt;T&lt;/span&gt;" style="ellipse;whiteSpace=wrap;html=1;" vertex="1" parent="1">
          <mxGeometry x="470" y="210" width="80" height="60" as="geometry" />
        </mxCell>
        <mxCell id="nULzpAqey_YGa7p1f66B-7" value="" style="endArrow=none;html=1;rounded=0;entryX=0.5;entryY=1;entryDx=0;entryDy=0;exitX=0.5;exitY=0;exitDx=0;exitDy=0;" edge="1" parent="1" source="nULzpAqey_YGa7p1f66B-6" target="nULzpAqey_YGa7p1f66B-1">
          <mxGeometry width="50" height="50" relative="1" as="geometry">
            <mxPoint x="370" y="230" as="sourcePoint" />
            <mxPoint x="420" y="180" as="targetPoint" />
          </mxGeometry>
        </mxCell>
        <mxCell id="nULzpAqey_YGa7p1f66B-8" value="&lt;span style=&quot;font-size: 24px;&quot;&gt;E&lt;/span&gt;" style="ellipse;whiteSpace=wrap;html=1;" vertex="1" parent="1">
          <mxGeometry x="404" y="310" width="80" height="60" as="geometry" />
        </mxCell>
        <mxCell id="nULzpAqey_YGa7p1f66B-9" value="" style="endArrow=none;html=1;rounded=0;entryX=0.5;entryY=1;entryDx=0;entryDy=0;exitX=0.5;exitY=0;exitDx=0;exitDy=0;" edge="1" parent="1" source="nULzpAqey_YGa7p1f66B-8" target="nULzpAqey_YGa7p1f66B-6">
          <mxGeometry width="50" height="50" relative="1" as="geometry">
            <mxPoint x="230" y="350" as="sourcePoint" />
            <mxPoint x="320" y="290" as="targetPoint" />
          </mxGeometry>
        </mxCell>
        <mxCell id="nULzpAqey_YGa7p1f66B-10" value="&lt;span style=&quot;font-size: 24px;&quot;&gt;N&lt;/span&gt;" style="ellipse;whiteSpace=wrap;html=1;" vertex="1" parent="1">
          <mxGeometry x="470" y="410" width="80" height="60" as="geometry" />
        </mxCell>
        <mxCell id="nULzpAqey_YGa7p1f66B-11" value="" style="endArrow=none;html=1;rounded=0;entryX=0.5;entryY=1;entryDx=0;entryDy=0;exitX=0.5;exitY=0;exitDx=0;exitDy=0;" edge="1" parent="1" source="nULzpAqey_YGa7p1f66B-10" target="nULzpAqey_YGa7p1f66B-8">
          <mxGeometry width="50" height="50" relative="1" as="geometry">
            <mxPoint x="640" y="430" as="sourcePoint" />
            <mxPoint x="530" y="380" as="targetPoint" />
          </mxGeometry>
        </mxCell>
        <mxCell id="nULzpAqey_YGa7p1f66B-12" value="&lt;span style=&quot;font-size: 24px;&quot;&gt;T&lt;/span&gt;" style="ellipse;whiteSpace=wrap;html=1;" vertex="1" parent="1">
          <mxGeometry x="1050" y="120" width="80" height="60" as="geometry" />
        </mxCell>
        <mxCell id="nULzpAqey_YGa7p1f66B-13" value="&lt;span style=&quot;font-size: 24px;&quot;&gt;H&lt;/span&gt;" style="ellipse;whiteSpace=wrap;html=1;" vertex="1" parent="1">
          <mxGeometry x="940" y="220" width="80" height="60" as="geometry" />
        </mxCell>
        <mxCell id="nULzpAqey_YGa7p1f66B-14" value="&lt;span style=&quot;font-size: 24px;&quot;&gt;I&lt;/span&gt;" style="ellipse;whiteSpace=wrap;html=1;" vertex="1" parent="1">
          <mxGeometry x="850" y="320" width="80" height="60" as="geometry" />
        </mxCell>
        <mxCell id="nULzpAqey_YGa7p1f66B-15" value="" style="endArrow=none;html=1;rounded=0;entryX=0.5;entryY=1;entryDx=0;entryDy=0;exitX=0.5;exitY=0;exitDx=0;exitDy=0;" edge="1" parent="1" source="nULzpAqey_YGa7p1f66B-13" target="nULzpAqey_YGa7p1f66B-12">
          <mxGeometry width="50" height="50" relative="1" as="geometry">
            <mxPoint x="1070" y="330" as="sourcePoint" />
            <mxPoint x="1120" y="280" as="targetPoint" />
          </mxGeometry>
        </mxCell>
        <mxCell id="nULzpAqey_YGa7p1f66B-16" value="" style="endArrow=none;html=1;rounded=0;entryX=0.5;entryY=1;entryDx=0;entryDy=0;exitX=0.5;exitY=0;exitDx=0;exitDy=0;" edge="1" parent="1" source="nULzpAqey_YGa7p1f66B-14" target="nULzpAqey_YGa7p1f66B-13">
          <mxGeometry width="50" height="50" relative="1" as="geometry">
            <mxPoint x="920" y="349" as="sourcePoint" />
            <mxPoint x="992" y="320" as="targetPoint" />
          </mxGeometry>
        </mxCell>
        <mxCell id="nULzpAqey_YGa7p1f66B-19" value="&lt;span style=&quot;font-size: 24px;&quot;&gt;N&lt;/span&gt;" style="ellipse;whiteSpace=wrap;html=1;" vertex="1" parent="1">
          <mxGeometry x="747" y="430" width="80" height="60" as="geometry" />
        </mxCell>
        <mxCell id="nULzpAqey_YGa7p1f66B-23" value="" style="endArrow=none;html=1;rounded=0;entryX=0.5;entryY=1;entryDx=0;entryDy=0;exitX=0.5;exitY=0;exitDx=0;exitDy=0;" edge="1" parent="1" source="nULzpAqey_YGa7p1f66B-19" target="nULzpAqey_YGa7p1f66B-14">
          <mxGeometry width="50" height="50" relative="1" as="geometry">
            <mxPoint x="870" y="480" as="sourcePoint" />
            <mxPoint x="960" y="440" as="targetPoint" />
          </mxGeometry>
        </mxCell>
        <mxCell id="nULzpAqey_YGa7p1f66B-24" value="&lt;span style=&quot;font-size: 24px;&quot;&gt;G&lt;/span&gt;" style="ellipse;whiteSpace=wrap;html=1;" vertex="1" parent="1">
          <mxGeometry x="1030" y="320" width="80" height="60" as="geometry" />
        </mxCell>
        <mxCell id="nULzpAqey_YGa7p1f66B-25" value="" style="endArrow=none;html=1;rounded=0;entryX=0.5;entryY=1;entryDx=0;entryDy=0;exitX=0.5;exitY=0;exitDx=0;exitDy=0;" edge="1" parent="1" source="nULzpAqey_YGa7p1f66B-24" target="nULzpAqey_YGa7p1f66B-13">
          <mxGeometry width="50" height="50" relative="1" as="geometry">
            <mxPoint x="900" y="330" as="sourcePoint" />
            <mxPoint x="990" y="290" as="targetPoint" />
          </mxGeometry>
        </mxCell>
        <mxCell id="nULzpAqey_YGa7p1f66B-26" value="&lt;span style=&quot;font-size: 24px;&quot;&gt;T&lt;/span&gt;" style="ellipse;whiteSpace=wrap;html=1;" vertex="1" parent="1">
          <mxGeometry x="1574" y="120" width="80" height="60" as="geometry" />
        </mxCell>
        <mxCell id="nULzpAqey_YGa7p1f66B-27" value="&lt;span style=&quot;font-size: 24px;&quot;&gt;H&lt;/span&gt;" style="ellipse;whiteSpace=wrap;html=1;" vertex="1" parent="1">
          <mxGeometry x="1464" y="220" width="80" height="60" as="geometry" />
        </mxCell>
        <mxCell id="nULzpAqey_YGa7p1f66B-28" value="&lt;span style=&quot;font-size: 24px;&quot;&gt;I&lt;/span&gt;" style="ellipse;whiteSpace=wrap;html=1;" vertex="1" parent="1">
          <mxGeometry x="1374" y="320" width="80" height="60" as="geometry" />
        </mxCell>
        <mxCell id="nULzpAqey_YGa7p1f66B-29" value="" style="endArrow=none;html=1;rounded=0;entryX=0.5;entryY=1;entryDx=0;entryDy=0;exitX=0.5;exitY=0;exitDx=0;exitDy=0;" edge="1" parent="1" source="nULzpAqey_YGa7p1f66B-27" target="nULzpAqey_YGa7p1f66B-26">
          <mxGeometry width="50" height="50" relative="1" as="geometry">
            <mxPoint x="1594" y="330" as="sourcePoint" />
            <mxPoint x="1644" y="280" as="targetPoint" />
          </mxGeometry>
        </mxCell>
        <mxCell id="nULzpAqey_YGa7p1f66B-30" value="" style="endArrow=none;html=1;rounded=0;entryX=0.5;entryY=1;entryDx=0;entryDy=0;exitX=0.5;exitY=0;exitDx=0;exitDy=0;" edge="1" parent="1" source="nULzpAqey_YGa7p1f66B-28" target="nULzpAqey_YGa7p1f66B-27">
          <mxGeometry width="50" height="50" relative="1" as="geometry">
            <mxPoint x="1444" y="349" as="sourcePoint" />
            <mxPoint x="1516" y="320" as="targetPoint" />
          </mxGeometry>
        </mxCell>
        <mxCell id="nULzpAqey_YGa7p1f66B-31" value="&lt;span style=&quot;font-size: 24px;&quot;&gt;N&lt;/span&gt;" style="ellipse;whiteSpace=wrap;html=1;" vertex="1" parent="1">
          <mxGeometry x="1464" y="430" width="80" height="60" as="geometry" />
        </mxCell>
        <mxCell id="nULzpAqey_YGa7p1f66B-32" value="" style="endArrow=none;html=1;rounded=0;entryX=0.5;entryY=1;entryDx=0;entryDy=0;exitX=0.5;exitY=0;exitDx=0;exitDy=0;" edge="1" parent="1" source="nULzpAqey_YGa7p1f66B-31" target="nULzpAqey_YGa7p1f66B-28">
          <mxGeometry width="50" height="50" relative="1" as="geometry">
            <mxPoint x="1394" y="480" as="sourcePoint" />
            <mxPoint x="1484" y="440" as="targetPoint" />
          </mxGeometry>
        </mxCell>
        <mxCell id="nULzpAqey_YGa7p1f66B-33" value="&lt;span style=&quot;font-size: 24px;&quot;&gt;G&lt;/span&gt;" style="ellipse;whiteSpace=wrap;html=1;" vertex="1" parent="1">
          <mxGeometry x="1554" y="320" width="80" height="60" as="geometry" />
        </mxCell>
        <mxCell id="nULzpAqey_YGa7p1f66B-34" value="" style="endArrow=none;html=1;rounded=0;entryX=0.5;entryY=1;entryDx=0;entryDy=0;exitX=0.5;exitY=0;exitDx=0;exitDy=0;" edge="1" parent="1" source="nULzpAqey_YGa7p1f66B-33" target="nULzpAqey_YGa7p1f66B-27">
          <mxGeometry width="50" height="50" relative="1" as="geometry">
            <mxPoint x="1424" y="330" as="sourcePoint" />
            <mxPoint x="1514" y="290" as="targetPoint" />
          </mxGeometry>
        </mxCell>
        <mxCell id="nULzpAqey_YGa7p1f66B-35" value="&lt;span style=&quot;font-size: 24px;&quot;&gt;T&lt;/span&gt;" style="ellipse;whiteSpace=wrap;html=1;" vertex="1" parent="1">
          <mxGeometry x="1081" y="585" width="80" height="60" as="geometry" />
        </mxCell>
        <mxCell id="nULzpAqey_YGa7p1f66B-36" value="&lt;span style=&quot;font-size: 24px;&quot;&gt;H&lt;/span&gt;" style="ellipse;whiteSpace=wrap;html=1;" vertex="1" parent="1">
          <mxGeometry x="1204" y="705" width="80" height="60" as="geometry" />
        </mxCell>
        <mxCell id="nULzpAqey_YGa7p1f66B-37" value="&lt;span style=&quot;font-size: 24px;&quot;&gt;I&lt;/span&gt;" style="ellipse;whiteSpace=wrap;html=1;" vertex="1" parent="1">
          <mxGeometry x="1114" y="805" width="80" height="60" as="geometry" />
        </mxCell>
        <mxCell id="nULzpAqey_YGa7p1f66B-38" value="" style="endArrow=none;html=1;rounded=0;entryX=0.5;entryY=1;entryDx=0;entryDy=0;exitX=0.5;exitY=0;exitDx=0;exitDy=0;" edge="1" parent="1" source="nULzpAqey_YGa7p1f66B-36" target="nULzpAqey_YGa7p1f66B-35">
          <mxGeometry width="50" height="50" relative="1" as="geometry">
            <mxPoint x="1101" y="795" as="sourcePoint" />
            <mxPoint x="1151" y="745" as="targetPoint" />
          </mxGeometry>
        </mxCell>
        <mxCell id="nULzpAqey_YGa7p1f66B-39" value="" style="endArrow=none;html=1;rounded=0;entryX=0.5;entryY=1;entryDx=0;entryDy=0;exitX=0.5;exitY=0;exitDx=0;exitDy=0;" edge="1" parent="1" source="nULzpAqey_YGa7p1f66B-37" target="nULzpAqey_YGa7p1f66B-36">
          <mxGeometry width="50" height="50" relative="1" as="geometry">
            <mxPoint x="1184" y="834" as="sourcePoint" />
            <mxPoint x="1256" y="805" as="targetPoint" />
          </mxGeometry>
        </mxCell>
        <mxCell id="nULzpAqey_YGa7p1f66B-40" value="&lt;span style=&quot;font-size: 24px;&quot;&gt;N&lt;/span&gt;" style="ellipse;whiteSpace=wrap;html=1;" vertex="1" parent="1">
          <mxGeometry x="1011" y="915" width="80" height="60" as="geometry" />
        </mxCell>
        <mxCell id="nULzpAqey_YGa7p1f66B-41" value="" style="endArrow=none;html=1;rounded=0;entryX=0.5;entryY=1;entryDx=0;entryDy=0;exitX=0.5;exitY=0;exitDx=0;exitDy=0;" edge="1" parent="1" source="nULzpAqey_YGa7p1f66B-40" target="nULzpAqey_YGa7p1f66B-37">
          <mxGeometry width="50" height="50" relative="1" as="geometry">
            <mxPoint x="1134" y="965" as="sourcePoint" />
            <mxPoint x="1224" y="925" as="targetPoint" />
          </mxGeometry>
        </mxCell>
        <mxCell id="nULzpAqey_YGa7p1f66B-42" value="&lt;span style=&quot;font-size: 24px;&quot;&gt;G&lt;/span&gt;" style="ellipse;whiteSpace=wrap;html=1;" vertex="1" parent="1">
          <mxGeometry x="1294" y="805" width="80" height="60" as="geometry" />
        </mxCell>
        <mxCell id="nULzpAqey_YGa7p1f66B-43" value="" style="endArrow=none;html=1;rounded=0;entryX=0.5;entryY=1;entryDx=0;entryDy=0;exitX=0.5;exitY=0;exitDx=0;exitDy=0;" edge="1" parent="1" source="nULzpAqey_YGa7p1f66B-42" target="nULzpAqey_YGa7p1f66B-36">
          <mxGeometry width="50" height="50" relative="1" as="geometry">
            <mxPoint x="1164" y="815" as="sourcePoint" />
            <mxPoint x="1254" y="775" as="targetPoint" />
          </mxGeometry>
        </mxCell>
        <mxCell id="nULzpAqey_YGa7p1f66B-44" value="&lt;span style=&quot;font-size: 24px;&quot;&gt;T&lt;/span&gt;" style="ellipse;whiteSpace=wrap;html=1;" vertex="1" parent="1">
          <mxGeometry x="1600" y="610" width="80" height="60" as="geometry" />
        </mxCell>
        <mxCell id="nULzpAqey_YGa7p1f66B-45" value="&lt;span style=&quot;font-size: 24px;&quot;&gt;H&lt;/span&gt;" style="ellipse;whiteSpace=wrap;html=1;" vertex="1" parent="1">
          <mxGeometry x="1723" y="730" width="80" height="60" as="geometry" />
        </mxCell>
        <mxCell id="nULzpAqey_YGa7p1f66B-46" value="&lt;span style=&quot;font-size: 24px;&quot;&gt;I&lt;/span&gt;" style="ellipse;whiteSpace=wrap;html=1;" vertex="1" parent="1">
          <mxGeometry x="1633" y="830" width="80" height="60" as="geometry" />
        </mxCell>
        <mxCell id="nULzpAqey_YGa7p1f66B-47" value="" style="endArrow=none;html=1;rounded=0;entryX=0.5;entryY=1;entryDx=0;entryDy=0;exitX=0.5;exitY=0;exitDx=0;exitDy=0;" edge="1" parent="1" source="nULzpAqey_YGa7p1f66B-45" target="nULzpAqey_YGa7p1f66B-44">
          <mxGeometry width="50" height="50" relative="1" as="geometry">
            <mxPoint x="1620" y="820" as="sourcePoint" />
            <mxPoint x="1670" y="770" as="targetPoint" />
          </mxGeometry>
        </mxCell>
        <mxCell id="nULzpAqey_YGa7p1f66B-48" value="" style="endArrow=none;html=1;rounded=0;entryX=0.5;entryY=1;entryDx=0;entryDy=0;exitX=0.5;exitY=0;exitDx=0;exitDy=0;" edge="1" parent="1" source="nULzpAqey_YGa7p1f66B-46" target="nULzpAqey_YGa7p1f66B-45">
          <mxGeometry width="50" height="50" relative="1" as="geometry">
            <mxPoint x="1703" y="859" as="sourcePoint" />
            <mxPoint x="1775" y="830" as="targetPoint" />
          </mxGeometry>
        </mxCell>
        <mxCell id="nULzpAqey_YGa7p1f66B-49" value="&lt;span style=&quot;font-size: 24px;&quot;&gt;N&lt;/span&gt;" style="ellipse;whiteSpace=wrap;html=1;" vertex="1" parent="1">
          <mxGeometry x="1713" y="930" width="80" height="60" as="geometry" />
        </mxCell>
        <mxCell id="nULzpAqey_YGa7p1f66B-50" value="" style="endArrow=none;html=1;rounded=0;entryX=0.5;entryY=1;entryDx=0;entryDy=0;exitX=0.5;exitY=0;exitDx=0;exitDy=0;" edge="1" parent="1" source="nULzpAqey_YGa7p1f66B-49" target="nULzpAqey_YGa7p1f66B-46">
          <mxGeometry width="50" height="50" relative="1" as="geometry">
            <mxPoint x="1653" y="990" as="sourcePoint" />
            <mxPoint x="1743" y="950" as="targetPoint" />
          </mxGeometry>
        </mxCell>
        <mxCell id="nULzpAqey_YGa7p1f66B-51" value="&lt;span style=&quot;font-size: 24px;&quot;&gt;G&lt;/span&gt;" style="ellipse;whiteSpace=wrap;html=1;" vertex="1" parent="1">
          <mxGeometry x="1813" y="830" width="80" height="60" as="geometry" />
        </mxCell>
        <mxCell id="nULzpAqey_YGa7p1f66B-52" value="" style="endArrow=none;html=1;rounded=0;entryX=0.5;entryY=1;entryDx=0;entryDy=0;exitX=0.5;exitY=0;exitDx=0;exitDy=0;" edge="1" parent="1" source="nULzpAqey_YGa7p1f66B-51" target="nULzpAqey_YGa7p1f66B-45">
          <mxGeometry width="50" height="50" relative="1" as="geometry">
            <mxPoint x="1683" y="840" as="sourcePoint" />
            <mxPoint x="1773" y="800" as="targetPoint" />
          </mxGeometry>
        </mxCell>
        <mxCell id="nULzpAqey_YGa7p1f66B-53" value="&lt;span style=&quot;font-size: 24px;&quot;&gt;Node&lt;/span&gt;" style="ellipse;whiteSpace=wrap;html=1;" vertex="1" parent="1">
          <mxGeometry x="360" y="710" width="80" height="60" as="geometry" />
        </mxCell>
        <mxCell id="nULzpAqey_YGa7p1f66B-54" value="&lt;span style=&quot;font-size: 24px;&quot;&gt;Root&lt;/span&gt;" style="ellipse;whiteSpace=wrap;html=1;" vertex="1" parent="1">
          <mxGeometry x="680" y="1210" width="110" height="90" as="geometry" />
        </mxCell>
        <mxCell id="nULzpAqey_YGa7p1f66B-55" value="" style="triangle;whiteSpace=wrap;html=1;rotation=-90;" vertex="1" parent="1">
          <mxGeometry x="570" y="1335" width="100" height="160" as="geometry" />
        </mxCell>
        <mxCell id="nULzpAqey_YGa7p1f66B-56" value="" style="triangle;whiteSpace=wrap;html=1;rotation=-90;" vertex="1" parent="1">
          <mxGeometry x="800" y="1335" width="100" height="160" as="geometry" />
        </mxCell>
        <mxCell id="nULzpAqey_YGa7p1f66B-57" value="" style="endArrow=none;html=1;rounded=0;entryX=0.5;entryY=1;entryDx=0;entryDy=0;exitX=1;exitY=0.5;exitDx=0;exitDy=0;" edge="1" parent="1" source="nULzpAqey_YGa7p1f66B-55" target="nULzpAqey_YGa7p1f66B-54">
          <mxGeometry width="50" height="50" relative="1" as="geometry">
            <mxPoint x="381" y="1385" as="sourcePoint" />
            <mxPoint x="484" y="1335" as="targetPoint" />
          </mxGeometry>
        </mxCell>
        <mxCell id="nULzpAqey_YGa7p1f66B-58" value="" style="endArrow=none;html=1;rounded=0;entryX=0.5;entryY=1;entryDx=0;entryDy=0;exitX=1;exitY=0.5;exitDx=0;exitDy=0;" edge="1" parent="1" source="nULzpAqey_YGa7p1f66B-56" target="nULzpAqey_YGa7p1f66B-54">
          <mxGeometry width="50" height="50" relative="1" as="geometry">
            <mxPoint x="630" y="1375" as="sourcePoint" />
            <mxPoint x="745" y="1310" as="targetPoint" />
          </mxGeometry>
        </mxCell>
        <mxCell id="nULzpAqey_YGa7p1f66B-59" value="&lt;font style=&quot;font-size: 18px;&quot;&gt;Left subtree&lt;/font&gt;" style="text;html=1;align=center;verticalAlign=middle;whiteSpace=wrap;rounded=0;" vertex="1" parent="1">
          <mxGeometry x="555" y="1432" width="130" height="30" as="geometry" />
        </mxCell>
        <mxCell id="nULzpAqey_YGa7p1f66B-60" value="&lt;font style=&quot;font-size: 18px;&quot;&gt;Right subtree&lt;/font&gt;" style="text;html=1;align=center;verticalAlign=middle;whiteSpace=wrap;rounded=0;" vertex="1" parent="1">
          <mxGeometry x="785" y="1432" width="130" height="30" as="geometry" />
        </mxCell>
        <mxCell id="nULzpAqey_YGa7p1f66B-61" value="&lt;span style=&quot;font-size: 24px;&quot;&gt;PreStart&lt;/span&gt;" style="ellipse;whiteSpace=wrap;html=1;" vertex="1" parent="1">
          <mxGeometry x="1255" y="1220" width="110" height="90" as="geometry" />
        </mxCell>
        <mxCell id="nULzpAqey_YGa7p1f66B-62" value="" style="triangle;whiteSpace=wrap;html=1;rotation=-90;" vertex="1" parent="1">
          <mxGeometry x="1140" y="1350" width="165" height="215" as="geometry" />
        </mxCell>
        <mxCell id="nULzpAqey_YGa7p1f66B-64" value="" style="endArrow=none;html=1;rounded=0;entryX=0.5;entryY=1;entryDx=0;entryDy=0;exitX=1;exitY=0.5;exitDx=0;exitDy=0;" edge="1" parent="1" source="nULzpAqey_YGa7p1f66B-62" target="nULzpAqey_YGa7p1f66B-61">
          <mxGeometry width="50" height="50" relative="1" as="geometry">
            <mxPoint x="956" y="1395" as="sourcePoint" />
            <mxPoint x="1059" y="1345" as="targetPoint" />
          </mxGeometry>
        </mxCell>
        <mxCell id="nULzpAqey_YGa7p1f66B-68" value="" style="ellipse;whiteSpace=wrap;html=1;fillColor=#3399FF;" vertex="1" parent="1">
          <mxGeometry x="1204" y="1380" width="33.75" height="30" as="geometry" />
        </mxCell>
        <mxCell id="nULzpAqey_YGa7p1f66B-69" value="&lt;span style=&quot;font-size: 18px;&quot;&gt;PreStart + 1&lt;/span&gt;" style="text;html=1;align=center;verticalAlign=middle;whiteSpace=wrap;rounded=0;" vertex="1" parent="1">
          <mxGeometry x="1081" y="1380" width="130" height="30" as="geometry" />
        </mxCell>
        <mxCell id="nULzpAqey_YGa7p1f66B-70" value="&lt;span style=&quot;font-size: 24px;&quot;&gt;PreStart&lt;/span&gt;" style="ellipse;whiteSpace=wrap;html=1;" vertex="1" parent="1">
          <mxGeometry x="1708" y="1230" width="110" height="90" as="geometry" />
        </mxCell>
        <mxCell id="nULzpAqey_YGa7p1f66B-71" value="" style="triangle;whiteSpace=wrap;html=1;rotation=-90;" vertex="1" parent="1">
          <mxGeometry x="1557" y="1360" width="165" height="215" as="geometry" />
        </mxCell>
        <mxCell id="nULzpAqey_YGa7p1f66B-72" value="" style="endArrow=none;html=1;rounded=0;entryX=0.5;entryY=1;entryDx=0;entryDy=0;exitX=1;exitY=0.5;exitDx=0;exitDy=0;" edge="1" parent="1" source="nULzpAqey_YGa7p1f66B-71" target="nULzpAqey_YGa7p1f66B-70">
          <mxGeometry width="50" height="50" relative="1" as="geometry">
            <mxPoint x="1373" y="1405" as="sourcePoint" />
            <mxPoint x="1476" y="1355" as="targetPoint" />
          </mxGeometry>
        </mxCell>
        <mxCell id="nULzpAqey_YGa7p1f66B-73" value="" style="ellipse;whiteSpace=wrap;html=1;fillColor=#3399FF;" vertex="1" parent="1">
          <mxGeometry x="1621" y="1390" width="33.75" height="30" as="geometry" />
        </mxCell>
        <mxCell id="nULzpAqey_YGa7p1f66B-74" value="&lt;span style=&quot;font-size: 18px;&quot;&gt;PreStart + 1&lt;/span&gt;" style="text;html=1;align=center;verticalAlign=middle;whiteSpace=wrap;rounded=0;" vertex="1" parent="1">
          <mxGeometry x="1498" y="1390" width="130" height="30" as="geometry" />
        </mxCell>
        <mxCell id="nULzpAqey_YGa7p1f66B-75" value="" style="triangle;whiteSpace=wrap;html=1;rotation=-90;" vertex="1" parent="1">
          <mxGeometry x="1830" y="1360" width="165" height="215" as="geometry" />
        </mxCell>
        <mxCell id="nULzpAqey_YGa7p1f66B-76" value="" style="endArrow=none;html=1;rounded=0;entryX=0.5;entryY=1;entryDx=0;entryDy=0;exitX=1;exitY=0.5;exitDx=0;exitDy=0;" edge="1" parent="1" source="nULzpAqey_YGa7p1f66B-75" target="nULzpAqey_YGa7p1f66B-70">
          <mxGeometry width="50" height="50" relative="1" as="geometry">
            <mxPoint x="1750" y="1415" as="sourcePoint" />
            <mxPoint x="1873" y="1350" as="targetPoint" />
          </mxGeometry>
        </mxCell>
        <mxCell id="nULzpAqey_YGa7p1f66B-77" value="&lt;font style=&quot;font-size: 24px;&quot;&gt;right subtree&lt;/font&gt;" style="text;html=1;align=center;verticalAlign=middle;whiteSpace=wrap;rounded=0;" vertex="1" parent="1">
          <mxGeometry x="1847.5" y="1490" width="130" height="30" as="geometry" />
        </mxCell>
        <mxCell id="nULzpAqey_YGa7p1f66B-78" value="&lt;span style=&quot;font-size: 24px;&quot;&gt;3&lt;/span&gt;" style="ellipse;whiteSpace=wrap;html=1;" vertex="1" parent="1">
          <mxGeometry x="2280" y="1220" width="80" height="60" as="geometry" />
        </mxCell>
        <mxCell id="nULzpAqey_YGa7p1f66B-79" value="&lt;span style=&quot;font-size: 24px;&quot;&gt;2&lt;/span&gt;" style="ellipse;whiteSpace=wrap;html=1;" vertex="1" parent="1">
          <mxGeometry x="2360" y="1340" width="80" height="60" as="geometry" />
        </mxCell>
        <mxCell id="nULzpAqey_YGa7p1f66B-80" value="" style="endArrow=none;html=1;rounded=0;entryX=0.5;entryY=1;entryDx=0;entryDy=0;exitX=0.5;exitY=0;exitDx=0;exitDy=0;" edge="1" parent="1" source="nULzpAqey_YGa7p1f66B-79" target="nULzpAqey_YGa7p1f66B-78">
          <mxGeometry width="50" height="50" relative="1" as="geometry">
            <mxPoint x="1763" y="940" as="sourcePoint" />
            <mxPoint x="1683" y="900" as="targetPoint" />
          </mxGeometry>
        </mxCell>
        <mxCell id="nULzpAqey_YGa7p1f66B-81" value="&lt;span style=&quot;font-size: 24px;&quot;&gt;4&lt;/span&gt;" style="ellipse;whiteSpace=wrap;html=1;" vertex="1" parent="1">
          <mxGeometry x="2440" y="1462" width="80" height="60" as="geometry" />
        </mxCell>
        <mxCell id="nULzpAqey_YGa7p1f66B-82" value="" style="endArrow=none;html=1;rounded=0;entryX=0.5;entryY=1;entryDx=0;entryDy=0;exitX=0.5;exitY=0;exitDx=0;exitDy=0;" edge="1" parent="1" source="nULzpAqey_YGa7p1f66B-81" target="nULzpAqey_YGa7p1f66B-79">
          <mxGeometry width="50" height="50" relative="1" as="geometry">
            <mxPoint x="2410" y="1350" as="sourcePoint" />
            <mxPoint x="2330" y="1290" as="targetPoint" />
          </mxGeometry>
        </mxCell>
        <mxCell id="nULzpAqey_YGa7p1f66B-83" value="&lt;span style=&quot;font-size: 24px;&quot;&gt;1&lt;/span&gt;" style="ellipse;whiteSpace=wrap;html=1;" vertex="1" parent="1">
          <mxGeometry x="2540" y="1590" width="80" height="60" as="geometry" />
        </mxCell>
        <mxCell id="nULzpAqey_YGa7p1f66B-84" value="&lt;span style=&quot;font-size: 24px;&quot;&gt;6&lt;/span&gt;" style="ellipse;whiteSpace=wrap;html=1;" vertex="1" parent="1">
          <mxGeometry x="2620" y="1710" width="80" height="60" as="geometry" />
        </mxCell>
        <mxCell id="nULzpAqey_YGa7p1f66B-85" value="" style="endArrow=none;html=1;rounded=0;entryX=0.5;entryY=1;entryDx=0;entryDy=0;exitX=0.5;exitY=0;exitDx=0;exitDy=0;" edge="1" parent="1" source="nULzpAqey_YGa7p1f66B-84" target="nULzpAqey_YGa7p1f66B-83">
          <mxGeometry width="50" height="50" relative="1" as="geometry">
            <mxPoint x="2023" y="1310" as="sourcePoint" />
            <mxPoint x="1943" y="1270" as="targetPoint" />
          </mxGeometry>
        </mxCell>
        <mxCell id="nULzpAqey_YGa7p1f66B-86" value="&lt;span style=&quot;font-size: 24px;&quot;&gt;5&lt;/span&gt;" style="ellipse;whiteSpace=wrap;html=1;" vertex="1" parent="1">
          <mxGeometry x="2700" y="1832" width="80" height="60" as="geometry" />
        </mxCell>
        <mxCell id="nULzpAqey_YGa7p1f66B-87" value="" style="endArrow=none;html=1;rounded=0;entryX=0.5;entryY=1;entryDx=0;entryDy=0;exitX=0.5;exitY=0;exitDx=0;exitDy=0;" edge="1" parent="1" source="nULzpAqey_YGa7p1f66B-86" target="nULzpAqey_YGa7p1f66B-84">
          <mxGeometry width="50" height="50" relative="1" as="geometry">
            <mxPoint x="2670" y="1720" as="sourcePoint" />
            <mxPoint x="2590" y="1660" as="targetPoint" />
          </mxGeometry>
        </mxCell>
        <mxCell id="nULzpAqey_YGa7p1f66B-88" value="" style="endArrow=none;html=1;rounded=0;entryX=0.5;entryY=1;entryDx=0;entryDy=0;exitX=0.5;exitY=0;exitDx=0;exitDy=0;" edge="1" parent="1" source="nULzpAqey_YGa7p1f66B-83" target="nULzpAqey_YGa7p1f66B-81">
          <mxGeometry width="50" height="50" relative="1" as="geometry">
            <mxPoint x="2670" y="1720" as="sourcePoint" />
            <mxPoint x="2590" y="1660" as="targetPoint" />
          </mxGeometry>
        </mxCell>
        <mxCell id="nULzpAqey_YGa7p1f66B-89" value="&lt;span style=&quot;font-size: 24px;&quot;&gt;1&lt;/span&gt;" style="ellipse;whiteSpace=wrap;html=1;" vertex="1" parent="1">
          <mxGeometry x="3050" y="1305" width="80" height="60" as="geometry" />
        </mxCell>
        <mxCell id="nULzpAqey_YGa7p1f66B-90" value="&lt;span style=&quot;font-size: 24px;&quot;&gt;2&lt;/span&gt;" style="ellipse;whiteSpace=wrap;html=1;" vertex="1" parent="1">
          <mxGeometry x="2950" y="1380" width="80" height="60" as="geometry" />
        </mxCell>
        <mxCell id="nULzpAqey_YGa7p1f66B-91" value="&lt;span style=&quot;font-size: 24px;&quot;&gt;3&lt;/span&gt;" style="ellipse;whiteSpace=wrap;html=1;" vertex="1" parent="1">
          <mxGeometry x="2890" y="1465" width="80" height="60" as="geometry" />
        </mxCell>
        <mxCell id="nULzpAqey_YGa7p1f66B-92" value="" style="endArrow=none;html=1;rounded=0;entryX=0.5;entryY=1;entryDx=0;entryDy=0;exitX=0.5;exitY=0;exitDx=0;exitDy=0;" edge="1" parent="1" source="nULzpAqey_YGa7p1f66B-90" target="nULzpAqey_YGa7p1f66B-89">
          <mxGeometry width="50" height="50" relative="1" as="geometry">
            <mxPoint x="2370" y="1365" as="sourcePoint" />
            <mxPoint x="2290" y="1305" as="targetPoint" />
          </mxGeometry>
        </mxCell>
        <mxCell id="nULzpAqey_YGa7p1f66B-93" value="" style="endArrow=none;html=1;rounded=0;entryX=0.5;entryY=1;entryDx=0;entryDy=0;exitX=0.5;exitY=0;exitDx=0;exitDy=0;" edge="1" parent="1" source="nULzpAqey_YGa7p1f66B-91" target="nULzpAqey_YGa7p1f66B-90">
          <mxGeometry width="50" height="50" relative="1" as="geometry">
            <mxPoint x="3000" y="1390" as="sourcePoint" />
            <mxPoint x="3100" y="1375" as="targetPoint" />
          </mxGeometry>
        </mxCell>
        <mxCell id="nULzpAqey_YGa7p1f66B-94" value="&lt;span style=&quot;font-size: 24px;&quot;&gt;4&lt;/span&gt;" style="ellipse;whiteSpace=wrap;html=1;" vertex="1" parent="1">
          <mxGeometry x="3010" y="1465" width="80" height="60" as="geometry" />
        </mxCell>
        <mxCell id="nULzpAqey_YGa7p1f66B-95" value="" style="endArrow=none;html=1;rounded=0;exitX=0.5;exitY=0;exitDx=0;exitDy=0;entryX=0.5;entryY=1;entryDx=0;entryDy=0;" edge="1" parent="1" source="nULzpAqey_YGa7p1f66B-94" target="nULzpAqey_YGa7p1f66B-90">
          <mxGeometry width="50" height="50" relative="1" as="geometry">
            <mxPoint x="2940" y="1475" as="sourcePoint" />
            <mxPoint x="2990" y="1455" as="targetPoint" />
          </mxGeometry>
        </mxCell>
        <mxCell id="nULzpAqey_YGa7p1f66B-96" value="&lt;span style=&quot;font-size: 24px;&quot;&gt;5&lt;/span&gt;" style="ellipse;whiteSpace=wrap;html=1;" vertex="1" parent="1">
          <mxGeometry x="3150" y="1380" width="80" height="60" as="geometry" />
        </mxCell>
        <mxCell id="nULzpAqey_YGa7p1f66B-97" value="" style="endArrow=none;html=1;rounded=0;entryX=0.5;entryY=1;entryDx=0;entryDy=0;exitX=0.5;exitY=0;exitDx=0;exitDy=0;" edge="1" parent="1" source="nULzpAqey_YGa7p1f66B-96" target="nULzpAqey_YGa7p1f66B-89">
          <mxGeometry width="50" height="50" relative="1" as="geometry">
            <mxPoint x="3000" y="1390" as="sourcePoint" />
            <mxPoint x="3100" y="1375" as="targetPoint" />
          </mxGeometry>
        </mxCell>
        <mxCell id="nULzpAqey_YGa7p1f66B-98" value="&lt;span style=&quot;font-size: 24px;&quot;&gt;6&lt;/span&gt;" style="ellipse;whiteSpace=wrap;html=1;" vertex="1" parent="1">
          <mxGeometry x="3110" y="1465" width="80" height="60" as="geometry" />
        </mxCell>
        <mxCell id="nULzpAqey_YGa7p1f66B-99" value="" style="endArrow=none;html=1;rounded=0;entryX=0.5;entryY=1;entryDx=0;entryDy=0;exitX=0.5;exitY=0;exitDx=0;exitDy=0;" edge="1" parent="1" source="nULzpAqey_YGa7p1f66B-98" target="nULzpAqey_YGa7p1f66B-96">
          <mxGeometry width="50" height="50" relative="1" as="geometry">
            <mxPoint x="2940" y="1475" as="sourcePoint" />
            <mxPoint x="3000" y="1450" as="targetPoint" />
          </mxGeometry>
        </mxCell>
        <mxCell id="nULzpAqey_YGa7p1f66B-100" value="&lt;span style=&quot;font-size: 24px;&quot;&gt;1&lt;/span&gt;" style="ellipse;whiteSpace=wrap;html=1;" vertex="1" parent="1">
          <mxGeometry x="3055" y="1610" width="80" height="60" as="geometry" />
        </mxCell>
        <mxCell id="nULzpAqey_YGa7p1f66B-101" value="&lt;span style=&quot;font-size: 24px;&quot;&gt;2&lt;/span&gt;" style="ellipse;whiteSpace=wrap;html=1;" vertex="1" parent="1">
          <mxGeometry x="2955" y="1685" width="80" height="60" as="geometry" />
        </mxCell>
        <mxCell id="nULzpAqey_YGa7p1f66B-102" value="&lt;span style=&quot;font-size: 24px;&quot;&gt;3&lt;/span&gt;" style="ellipse;whiteSpace=wrap;html=1;" vertex="1" parent="1">
          <mxGeometry x="2895" y="1770" width="80" height="60" as="geometry" />
        </mxCell>
        <mxCell id="nULzpAqey_YGa7p1f66B-103" value="" style="endArrow=none;html=1;rounded=0;entryX=0.5;entryY=1;entryDx=0;entryDy=0;exitX=0.5;exitY=0;exitDx=0;exitDy=0;" edge="1" parent="1" source="nULzpAqey_YGa7p1f66B-101" target="nULzpAqey_YGa7p1f66B-100">
          <mxGeometry width="50" height="50" relative="1" as="geometry">
            <mxPoint x="2375" y="1670" as="sourcePoint" />
            <mxPoint x="2295" y="1610" as="targetPoint" />
          </mxGeometry>
        </mxCell>
        <mxCell id="nULzpAqey_YGa7p1f66B-104" value="" style="endArrow=none;html=1;rounded=0;entryX=0.5;entryY=1;entryDx=0;entryDy=0;exitX=0.5;exitY=0;exitDx=0;exitDy=0;" edge="1" parent="1" source="nULzpAqey_YGa7p1f66B-102" target="nULzpAqey_YGa7p1f66B-101">
          <mxGeometry width="50" height="50" relative="1" as="geometry">
            <mxPoint x="3005" y="1695" as="sourcePoint" />
            <mxPoint x="3105" y="1680" as="targetPoint" />
          </mxGeometry>
        </mxCell>
        <mxCell id="nULzpAqey_YGa7p1f66B-105" value="&lt;span style=&quot;font-size: 24px;&quot;&gt;4&lt;/span&gt;" style="ellipse;whiteSpace=wrap;html=1;strokeColor=#66FFFF;fillColor=#66FFFF;" vertex="1" parent="1">
          <mxGeometry x="3015" y="1770" width="80" height="60" as="geometry" />
        </mxCell>
        <mxCell id="nULzpAqey_YGa7p1f66B-106" value="" style="endArrow=none;html=1;rounded=0;exitX=0.5;exitY=0;exitDx=0;exitDy=0;entryX=0.5;entryY=1;entryDx=0;entryDy=0;" edge="1" parent="1" source="nULzpAqey_YGa7p1f66B-105" target="nULzpAqey_YGa7p1f66B-101">
          <mxGeometry width="50" height="50" relative="1" as="geometry">
            <mxPoint x="2945" y="1780" as="sourcePoint" />
            <mxPoint x="2995" y="1760" as="targetPoint" />
          </mxGeometry>
        </mxCell>
        <mxCell id="nULzpAqey_YGa7p1f66B-107" value="&lt;span style=&quot;font-size: 24px;&quot;&gt;5&lt;/span&gt;" style="ellipse;whiteSpace=wrap;html=1;" vertex="1" parent="1">
          <mxGeometry x="3155" y="1685" width="80" height="60" as="geometry" />
        </mxCell>
        <mxCell id="nULzpAqey_YGa7p1f66B-108" value="" style="endArrow=none;html=1;rounded=0;entryX=0.5;entryY=1;entryDx=0;entryDy=0;exitX=0.5;exitY=0;exitDx=0;exitDy=0;" edge="1" parent="1" source="nULzpAqey_YGa7p1f66B-107" target="nULzpAqey_YGa7p1f66B-100">
          <mxGeometry width="50" height="50" relative="1" as="geometry">
            <mxPoint x="3005" y="1695" as="sourcePoint" />
            <mxPoint x="3105" y="1680" as="targetPoint" />
          </mxGeometry>
        </mxCell>
        <mxCell id="nULzpAqey_YGa7p1f66B-109" value="&lt;span style=&quot;font-size: 24px;&quot;&gt;6&lt;/span&gt;" style="ellipse;whiteSpace=wrap;html=1;" vertex="1" parent="1">
          <mxGeometry x="3115" y="1770" width="80" height="60" as="geometry" />
        </mxCell>
        <mxCell id="nULzpAqey_YGa7p1f66B-110" value="" style="endArrow=none;html=1;rounded=0;entryX=0.5;entryY=1;entryDx=0;entryDy=0;exitX=0.5;exitY=0;exitDx=0;exitDy=0;" edge="1" parent="1" source="nULzpAqey_YGa7p1f66B-109" target="nULzpAqey_YGa7p1f66B-107">
          <mxGeometry width="50" height="50" relative="1" as="geometry">
            <mxPoint x="2945" y="1780" as="sourcePoint" />
            <mxPoint x="3005" y="1755" as="targetPoint" />
          </mxGeometry>
        </mxCell>
        <mxCell id="nULzpAqey_YGa7p1f66B-111" value="&lt;span style=&quot;font-size: 24px;&quot;&gt;1&lt;/span&gt;" style="ellipse;whiteSpace=wrap;html=1;" vertex="1" parent="1">
          <mxGeometry x="3520" y="1330" width="80" height="60" as="geometry" />
        </mxCell>
        <mxCell id="nULzpAqey_YGa7p1f66B-112" value="&lt;span style=&quot;font-size: 24px;&quot;&gt;2&lt;/span&gt;" style="ellipse;whiteSpace=wrap;html=1;" vertex="1" parent="1">
          <mxGeometry x="3380" y="1135" width="80" height="60" as="geometry" />
        </mxCell>
        <mxCell id="nULzpAqey_YGa7p1f66B-113" value="&lt;span style=&quot;font-size: 24px;&quot;&gt;3&lt;/span&gt;" style="ellipse;whiteSpace=wrap;html=1;" vertex="1" parent="1">
          <mxGeometry x="3320" y="1220" width="80" height="60" as="geometry" />
        </mxCell>
        <mxCell id="nULzpAqey_YGa7p1f66B-115" value="" style="endArrow=none;html=1;rounded=0;entryX=0.5;entryY=1;entryDx=0;entryDy=0;exitX=0.5;exitY=0;exitDx=0;exitDy=0;" edge="1" parent="1" source="nULzpAqey_YGa7p1f66B-113" target="nULzpAqey_YGa7p1f66B-112">
          <mxGeometry width="50" height="50" relative="1" as="geometry">
            <mxPoint x="3430" y="1145" as="sourcePoint" />
            <mxPoint x="3530" y="1130" as="targetPoint" />
          </mxGeometry>
        </mxCell>
        <mxCell id="nULzpAqey_YGa7p1f66B-116" value="&lt;span style=&quot;font-size: 24px;&quot;&gt;4&lt;/span&gt;" style="ellipse;whiteSpace=wrap;html=1;strokeColor=#66FFFF;fillColor=#66FFFF;" vertex="1" parent="1">
          <mxGeometry x="3440" y="1220" width="80" height="60" as="geometry" />
        </mxCell>
        <mxCell id="nULzpAqey_YGa7p1f66B-117" value="" style="endArrow=none;html=1;rounded=0;exitX=0.5;exitY=0;exitDx=0;exitDy=0;entryX=0.5;entryY=1;entryDx=0;entryDy=0;" edge="1" parent="1" source="nULzpAqey_YGa7p1f66B-116" target="nULzpAqey_YGa7p1f66B-112">
          <mxGeometry width="50" height="50" relative="1" as="geometry">
            <mxPoint x="3370" y="1230" as="sourcePoint" />
            <mxPoint x="3420" y="1210" as="targetPoint" />
          </mxGeometry>
        </mxCell>
        <mxCell id="nULzpAqey_YGa7p1f66B-118" value="&lt;span style=&quot;font-size: 24px;&quot;&gt;5&lt;/span&gt;" style="ellipse;whiteSpace=wrap;html=1;" vertex="1" parent="1">
          <mxGeometry x="3620" y="1405" width="80" height="60" as="geometry" />
        </mxCell>
        <mxCell id="nULzpAqey_YGa7p1f66B-119" value="" style="endArrow=none;html=1;rounded=0;entryX=0.5;entryY=1;entryDx=0;entryDy=0;exitX=0.5;exitY=0;exitDx=0;exitDy=0;" edge="1" parent="1" source="nULzpAqey_YGa7p1f66B-118" target="nULzpAqey_YGa7p1f66B-111">
          <mxGeometry width="50" height="50" relative="1" as="geometry">
            <mxPoint x="3470" y="1415" as="sourcePoint" />
            <mxPoint x="3570" y="1400" as="targetPoint" />
          </mxGeometry>
        </mxCell>
        <mxCell id="nULzpAqey_YGa7p1f66B-120" value="&lt;span style=&quot;font-size: 24px;&quot;&gt;6&lt;/span&gt;" style="ellipse;whiteSpace=wrap;html=1;" vertex="1" parent="1">
          <mxGeometry x="3580" y="1490" width="80" height="60" as="geometry" />
        </mxCell>
        <mxCell id="nULzpAqey_YGa7p1f66B-121" value="" style="endArrow=none;html=1;rounded=0;entryX=0.5;entryY=1;entryDx=0;entryDy=0;exitX=0.5;exitY=0;exitDx=0;exitDy=0;" edge="1" parent="1" source="nULzpAqey_YGa7p1f66B-120" target="nULzpAqey_YGa7p1f66B-118">
          <mxGeometry width="50" height="50" relative="1" as="geometry">
            <mxPoint x="3410" y="1500" as="sourcePoint" />
            <mxPoint x="3470" y="1475" as="targetPoint" />
          </mxGeometry>
        </mxCell>
        <mxCell id="nULzpAqey_YGa7p1f66B-127" value="" style="endArrow=classic;html=1;rounded=0;entryX=0.5;entryY=0;entryDx=0;entryDy=0;exitX=0.5;exitY=1;exitDx=0;exitDy=0;" edge="1" parent="1" source="nULzpAqey_YGa7p1f66B-116" target="nULzpAqey_YGa7p1f66B-111">
          <mxGeometry width="50" height="50" relative="1" as="geometry">
            <mxPoint x="3400" y="1620" as="sourcePoint" />
            <mxPoint x="3450" y="1570" as="targetPoint" />
          </mxGeometry>
        </mxCell>
        <mxCell id="nULzpAqey_YGa7p1f66B-128" value="&lt;span style=&quot;font-size: 24px;&quot;&gt;1&lt;/span&gt;" style="ellipse;whiteSpace=wrap;html=1;" vertex="1" parent="1">
          <mxGeometry x="3540" y="1630" width="80" height="60" as="geometry" />
        </mxCell>
        <mxCell id="nULzpAqey_YGa7p1f66B-129" value="&lt;span style=&quot;font-size: 24px;&quot;&gt;2&lt;/span&gt;" style="ellipse;whiteSpace=wrap;html=1;fillColor=#66FFFF;" vertex="1" parent="1">
          <mxGeometry x="3440" y="1705" width="80" height="60" as="geometry" />
        </mxCell>
        <mxCell id="nULzpAqey_YGa7p1f66B-130" value="&lt;span style=&quot;font-size: 24px;&quot;&gt;3&lt;/span&gt;" style="ellipse;whiteSpace=wrap;html=1;" vertex="1" parent="1">
          <mxGeometry x="3380" y="1790" width="80" height="60" as="geometry" />
        </mxCell>
        <mxCell id="nULzpAqey_YGa7p1f66B-132" value="" style="endArrow=none;html=1;rounded=0;entryX=0.5;entryY=1;entryDx=0;entryDy=0;exitX=0.5;exitY=0;exitDx=0;exitDy=0;" edge="1" parent="1" source="nULzpAqey_YGa7p1f66B-130" target="nULzpAqey_YGa7p1f66B-129">
          <mxGeometry width="50" height="50" relative="1" as="geometry">
            <mxPoint x="3490" y="1715" as="sourcePoint" />
            <mxPoint x="3590" y="1700" as="targetPoint" />
          </mxGeometry>
        </mxCell>
        <mxCell id="nULzpAqey_YGa7p1f66B-133" value="&lt;span style=&quot;font-size: 24px;&quot;&gt;4&lt;/span&gt;" style="ellipse;whiteSpace=wrap;html=1;" vertex="1" parent="1">
          <mxGeometry x="3500" y="1790" width="80" height="60" as="geometry" />
        </mxCell>
        <mxCell id="nULzpAqey_YGa7p1f66B-134" value="" style="endArrow=none;html=1;rounded=0;exitX=0.5;exitY=0;exitDx=0;exitDy=0;entryX=0.5;entryY=1;entryDx=0;entryDy=0;" edge="1" parent="1" source="nULzpAqey_YGa7p1f66B-133" target="nULzpAqey_YGa7p1f66B-129">
          <mxGeometry width="50" height="50" relative="1" as="geometry">
            <mxPoint x="3430" y="1800" as="sourcePoint" />
            <mxPoint x="3480" y="1780" as="targetPoint" />
          </mxGeometry>
        </mxCell>
        <mxCell id="nULzpAqey_YGa7p1f66B-135" value="&lt;span style=&quot;font-size: 24px;&quot;&gt;5&lt;/span&gt;" style="ellipse;whiteSpace=wrap;html=1;" vertex="1" parent="1">
          <mxGeometry x="3640" y="1705" width="80" height="60" as="geometry" />
        </mxCell>
        <mxCell id="nULzpAqey_YGa7p1f66B-136" value="" style="endArrow=none;html=1;rounded=0;entryX=0.5;entryY=1;entryDx=0;entryDy=0;exitX=0.5;exitY=0;exitDx=0;exitDy=0;" edge="1" parent="1" source="nULzpAqey_YGa7p1f66B-135" target="nULzpAqey_YGa7p1f66B-128">
          <mxGeometry width="50" height="50" relative="1" as="geometry">
            <mxPoint x="3490" y="1715" as="sourcePoint" />
            <mxPoint x="3590" y="1700" as="targetPoint" />
          </mxGeometry>
        </mxCell>
        <mxCell id="nULzpAqey_YGa7p1f66B-137" value="&lt;span style=&quot;font-size: 24px;&quot;&gt;6&lt;/span&gt;" style="ellipse;whiteSpace=wrap;html=1;" vertex="1" parent="1">
          <mxGeometry x="3600" y="1790" width="80" height="60" as="geometry" />
        </mxCell>
        <mxCell id="nULzpAqey_YGa7p1f66B-138" value="" style="endArrow=none;html=1;rounded=0;entryX=0.5;entryY=1;entryDx=0;entryDy=0;exitX=0.5;exitY=0;exitDx=0;exitDy=0;" edge="1" parent="1" source="nULzpAqey_YGa7p1f66B-137" target="nULzpAqey_YGa7p1f66B-135">
          <mxGeometry width="50" height="50" relative="1" as="geometry">
            <mxPoint x="3430" y="1800" as="sourcePoint" />
            <mxPoint x="3490" y="1775" as="targetPoint" />
          </mxGeometry>
        </mxCell>
        <mxCell id="nULzpAqey_YGa7p1f66B-139" value="" style="endArrow=classic;html=1;rounded=0;entryX=0.5;entryY=0;entryDx=0;entryDy=0;exitX=0.5;exitY=1;exitDx=0;exitDy=0;" edge="1" parent="1" source="nULzpAqey_YGa7p1f66B-128" target="nULzpAqey_YGa7p1f66B-129">
          <mxGeometry width="50" height="50" relative="1" as="geometry">
            <mxPoint x="3490" y="1290" as="sourcePoint" />
            <mxPoint x="3570" y="1340" as="targetPoint" />
          </mxGeometry>
        </mxCell>
        <mxCell id="DtM_NoywxvVe5jTxSgU8-1" value="&lt;span style=&quot;font-size: 24px;&quot;&gt;50&lt;/span&gt;" style="ellipse;whiteSpace=wrap;html=1;" vertex="1" parent="1">
          <mxGeometry x="2300" y="600" width="80" height="60" as="geometry" />
        </mxCell>
        <mxCell id="KuChjPZgc3yMqQKz1R2U-1" value="&lt;span style=&quot;font-size: 24px;&quot;&gt;30&lt;/span&gt;" style="ellipse;whiteSpace=wrap;html=1;" vertex="1" parent="1">
          <mxGeometry x="2210" y="705" width="80" height="60" as="geometry" />
        </mxCell>
        <mxCell id="KuChjPZgc3yMqQKz1R2U-2" value="&lt;span style=&quot;font-size: 24px;&quot;&gt;40&lt;/span&gt;" style="ellipse;whiteSpace=wrap;html=1;" vertex="1" parent="1">
          <mxGeometry x="2390" y="705" width="80" height="60" as="geometry" />
        </mxCell>
        <mxCell id="KuChjPZgc3yMqQKz1R2U-3" value="" style="endArrow=none;html=1;rounded=0;entryX=0.5;entryY=1;entryDx=0;entryDy=0;exitX=0.5;exitY=0;exitDx=0;exitDy=0;" edge="1" parent="1" source="KuChjPZgc3yMqQKz1R2U-1" target="DtM_NoywxvVe5jTxSgU8-1">
          <mxGeometry width="50" height="50" relative="1" as="geometry">
            <mxPoint x="1683" y="840" as="sourcePoint" />
            <mxPoint x="1773" y="800" as="targetPoint" />
          </mxGeometry>
        </mxCell>
        <mxCell id="KuChjPZgc3yMqQKz1R2U-4" value="" style="endArrow=none;html=1;rounded=0;entryX=0.5;entryY=1;entryDx=0;entryDy=0;exitX=0.5;exitY=0;exitDx=0;exitDy=0;" edge="1" parent="1" source="KuChjPZgc3yMqQKz1R2U-2" target="DtM_NoywxvVe5jTxSgU8-1">
          <mxGeometry width="50" height="50" relative="1" as="geometry">
            <mxPoint x="2260" y="715" as="sourcePoint" />
            <mxPoint x="2350" y="670" as="targetPoint" />
          </mxGeometry>
        </mxCell>
        <mxCell id="KuChjPZgc3yMqQKz1R2U-5" value="&lt;span style=&quot;font-size: 24px;&quot;&gt;10&lt;/span&gt;" style="ellipse;whiteSpace=wrap;html=1;" vertex="1" parent="1">
          <mxGeometry x="2120" y="830" width="80" height="60" as="geometry" />
        </mxCell>
        <mxCell id="KuChjPZgc3yMqQKz1R2U-6" value="&lt;span style=&quot;font-size: 24px;&quot;&gt;20&lt;/span&gt;" style="ellipse;whiteSpace=wrap;html=1;" vertex="1" parent="1">
          <mxGeometry x="2300" y="830" width="80" height="65" as="geometry" />
        </mxCell>
        <mxCell id="KuChjPZgc3yMqQKz1R2U-7" value="" style="endArrow=none;html=1;rounded=0;entryX=0.5;entryY=1;entryDx=0;entryDy=0;exitX=0.5;exitY=0;exitDx=0;exitDy=0;" edge="1" parent="1" source="KuChjPZgc3yMqQKz1R2U-5" target="KuChjPZgc3yMqQKz1R2U-1">
          <mxGeometry width="50" height="50" relative="1" as="geometry">
            <mxPoint x="2260" y="715" as="sourcePoint" />
            <mxPoint x="2350" y="670" as="targetPoint" />
          </mxGeometry>
        </mxCell>
        <mxCell id="KuChjPZgc3yMqQKz1R2U-8" value="" style="endArrow=none;html=1;rounded=0;entryX=0.5;entryY=1;entryDx=0;entryDy=0;exitX=0.5;exitY=0;exitDx=0;exitDy=0;" edge="1" parent="1" source="KuChjPZgc3yMqQKz1R2U-6" target="KuChjPZgc3yMqQKz1R2U-1">
          <mxGeometry width="50" height="50" relative="1" as="geometry">
            <mxPoint x="2170" y="840" as="sourcePoint" />
            <mxPoint x="2260" y="775" as="targetPoint" />
          </mxGeometry>
        </mxCell>
        <mxCell id="KuChjPZgc3yMqQKz1R2U-9" value="&lt;span style=&quot;font-size: 24px;&quot;&gt;20&lt;/span&gt;" style="ellipse;whiteSpace=wrap;html=1;" vertex="1" parent="1">
          <mxGeometry x="2745" y="600" width="80" height="60" as="geometry" />
        </mxCell>
        <mxCell id="KuChjPZgc3yMqQKz1R2U-10" value="&lt;span style=&quot;font-size: 24px;&quot;&gt;10&lt;/span&gt;" style="ellipse;whiteSpace=wrap;html=1;" vertex="1" parent="1">
          <mxGeometry x="2655" y="705" width="80" height="60" as="geometry" />
        </mxCell>
        <mxCell id="KuChjPZgc3yMqQKz1R2U-11" value="&lt;span style=&quot;font-size: 24px;&quot;&gt;40&lt;/span&gt;" style="ellipse;whiteSpace=wrap;html=1;" vertex="1" parent="1">
          <mxGeometry x="2835" y="705" width="80" height="60" as="geometry" />
        </mxCell>
        <mxCell id="KuChjPZgc3yMqQKz1R2U-12" value="" style="endArrow=none;html=1;rounded=0;entryX=0.5;entryY=1;entryDx=0;entryDy=0;exitX=0.5;exitY=0;exitDx=0;exitDy=0;" edge="1" parent="1" source="KuChjPZgc3yMqQKz1R2U-10" target="KuChjPZgc3yMqQKz1R2U-9">
          <mxGeometry width="50" height="50" relative="1" as="geometry">
            <mxPoint x="2128" y="840" as="sourcePoint" />
            <mxPoint x="2218" y="800" as="targetPoint" />
          </mxGeometry>
        </mxCell>
        <mxCell id="KuChjPZgc3yMqQKz1R2U-13" value="" style="endArrow=none;html=1;rounded=0;entryX=0.5;entryY=1;entryDx=0;entryDy=0;exitX=0.5;exitY=0;exitDx=0;exitDy=0;" edge="1" parent="1" source="KuChjPZgc3yMqQKz1R2U-11" target="KuChjPZgc3yMqQKz1R2U-9">
          <mxGeometry width="50" height="50" relative="1" as="geometry">
            <mxPoint x="2705" y="715" as="sourcePoint" />
            <mxPoint x="2795" y="670" as="targetPoint" />
          </mxGeometry>
        </mxCell>
        <mxCell id="KuChjPZgc3yMqQKz1R2U-14" value="&lt;span style=&quot;font-size: 24px;&quot;&gt;30&lt;/span&gt;" style="ellipse;whiteSpace=wrap;html=1;" vertex="1" parent="1">
          <mxGeometry x="2565" y="830" width="80" height="60" as="geometry" />
        </mxCell>
        <mxCell id="KuChjPZgc3yMqQKz1R2U-15" value="&lt;span style=&quot;font-size: 24px;&quot;&gt;50&lt;/span&gt;" style="ellipse;whiteSpace=wrap;html=1;" vertex="1" parent="1">
          <mxGeometry x="2745" y="830" width="80" height="65" as="geometry" />
        </mxCell>
        <mxCell id="KuChjPZgc3yMqQKz1R2U-16" value="" style="endArrow=none;html=1;rounded=0;entryX=0.5;entryY=1;entryDx=0;entryDy=0;exitX=0.5;exitY=0;exitDx=0;exitDy=0;" edge="1" parent="1" source="KuChjPZgc3yMqQKz1R2U-14" target="KuChjPZgc3yMqQKz1R2U-10">
          <mxGeometry width="50" height="50" relative="1" as="geometry">
            <mxPoint x="2705" y="715" as="sourcePoint" />
            <mxPoint x="2795" y="670" as="targetPoint" />
          </mxGeometry>
        </mxCell>
        <mxCell id="KuChjPZgc3yMqQKz1R2U-17" value="" style="endArrow=none;html=1;rounded=0;entryX=0.5;entryY=1;entryDx=0;entryDy=0;exitX=0.5;exitY=0;exitDx=0;exitDy=0;" edge="1" parent="1" source="KuChjPZgc3yMqQKz1R2U-15" target="KuChjPZgc3yMqQKz1R2U-10">
          <mxGeometry width="50" height="50" relative="1" as="geometry">
            <mxPoint x="2615" y="840" as="sourcePoint" />
            <mxPoint x="2705" y="775" as="targetPoint" />
          </mxGeometry>
        </mxCell>
        <mxCell id="2ObtFjdnso0Q1U8zEoYO-1" value="&lt;span style=&quot;font-size: 24px;&quot;&gt;100&lt;/span&gt;" style="ellipse;whiteSpace=wrap;html=1;" vertex="1" parent="1">
          <mxGeometry x="2300" y="290" width="80" height="60" as="geometry" />
        </mxCell>
        <mxCell id="2ObtFjdnso0Q1U8zEoYO-2" value="&lt;span style=&quot;font-size: 24px;&quot;&gt;90&lt;/span&gt;" style="ellipse;whiteSpace=wrap;html=1;" vertex="1" parent="1">
          <mxGeometry x="2210" y="395" width="80" height="60" as="geometry" />
        </mxCell>
        <mxCell id="2ObtFjdnso0Q1U8zEoYO-3" value="&lt;span style=&quot;font-size: 24px;&quot;&gt;80&lt;/span&gt;" style="ellipse;whiteSpace=wrap;html=1;fillColor=#66FFFF;" vertex="1" parent="1">
          <mxGeometry x="2390" y="395" width="80" height="60" as="geometry" />
        </mxCell>
        <mxCell id="2ObtFjdnso0Q1U8zEoYO-4" value="" style="endArrow=none;html=1;rounded=0;entryX=0.5;entryY=1;entryDx=0;entryDy=0;exitX=0.5;exitY=0;exitDx=0;exitDy=0;" edge="1" parent="1" source="2ObtFjdnso0Q1U8zEoYO-2" target="2ObtFjdnso0Q1U8zEoYO-1">
          <mxGeometry width="50" height="50" relative="1" as="geometry">
            <mxPoint x="1683" y="530" as="sourcePoint" />
            <mxPoint x="1773" y="490" as="targetPoint" />
          </mxGeometry>
        </mxCell>
        <mxCell id="2ObtFjdnso0Q1U8zEoYO-5" value="" style="endArrow=none;html=1;rounded=0;entryX=0.5;entryY=1;entryDx=0;entryDy=0;exitX=0.5;exitY=0;exitDx=0;exitDy=0;" edge="1" parent="1" source="2ObtFjdnso0Q1U8zEoYO-3" target="2ObtFjdnso0Q1U8zEoYO-1">
          <mxGeometry width="50" height="50" relative="1" as="geometry">
            <mxPoint x="2260" y="405" as="sourcePoint" />
            <mxPoint x="2350" y="360" as="targetPoint" />
          </mxGeometry>
        </mxCell>
      </root>
    </mxGraphModel>
  </diagram>
</mxfile>
